<svg xmlns="http://www.w3.org/2000/svg" width="2000" height="2600"><defs><linearGradient id="b" x1="0" x2="1" y1="0" y2="0" gradientTransform="scale(5944.03 -5944.03) rotate(-36.793 -1.405 -2.873)" gradientUnits="userSpaceOnUse" spreadMethod="pad"><stop offset="0" style="stop-opacity:1;stop-color:#cb87ff"/><stop offset="1" style="stop-opacity:1;stop-color:#7d00eb"/></linearGradient><linearGradient id="d" x1="0" x2="1" y1="0" y2="0" gradientTransform="matrix(4659.7 0 0 -4659.7 8221.68 10593.2)" gradientUnits="userSpaceOnUse" spreadMethod="pad"><stop offset="0" style="stop-opacity:1;stop-color:#cb87ff"/><stop offset="1" style="stop-opacity:1;stop-color:#7d00eb"/></linearGradient><linearGradient id="f" x1="0" x2="1" y1="0" y2="0" gradientTransform="scale(5340.17 -5340.17) rotate(-34.896 -1.293 -3.586)" gradientUnits="userSpaceOnUse" spreadMethod="pad"><stop offset="0" style="stop-opacity:1;stop-color:#cb87ff"/><stop offset="1" style="stop-opacity:1;stop-color:#7d00eb"/></linearGradient><linearGradient id="h" x1="0" x2="1" y1="0" y2="0" gradientTransform="scale(5908.07 -5908.07) rotate(-40.538 -1.02 -2.722)" gradientUnits="userSpaceOnUse" spreadMethod="pad"><stop offset="0" style="stop-opacity:1;stop-color:#cb87ff"/><stop offset=".516" style="stop-opacity:1;stop-color:#cb87ff"/><stop offset="1" style="stop-opacity:1;stop-color:#7d00eb"/></linearGradient><linearGradient id="j" x1="0" x2="1" y1="0" y2="0" gradientTransform="scale(813.942 -813.942) rotate(79.38 17.847 1.766)" gradientUnits="userSpaceOnUse" spreadMethod="pad"><stop offset="0" style="stop-opacity:1;stop-color:#cb87ff"/><stop offset="1" style="stop-opacity:1;stop-color:#7d00eb"/></linearGradient><linearGradient id="l" x1="0" x2="1" y1="0" y2="0" gradientTransform="scale(-791.967 791.967) rotate(-45 12.049 28.166)" gradientUnits="userSpaceOnUse" spreadMethod="pad"><stop offset="0" style="stop-opacity:1;stop-color:#cb87ff"/><stop offset="1" style="stop-opacity:1;stop-color:#7d00eb"/></linearGradient><linearGradient id="n" x1="0" x2="1" y1="0" y2="0" gradientTransform="scale(-787.7 787.7) rotate(28.843 -41.614 -25.394)" gradientUnits="userSpaceOnUse" spreadMethod="pad"><stop offset="0" style="stop-opacity:1;stop-color:#cb87ff"/><stop offset="1" style="stop-opacity:1;stop-color:#7d00eb"/></linearGradient><linearGradient id="p" x1="0" x2="1" y1="0" y2="0" gradientTransform="matrix(4654.39 0 0 -4654.39 8226.68 10591.7)" gradientUnits="userSpaceOnUse" spreadMethod="pad"><stop offset="0" style="stop-opacity:1;stop-color:#cb87ff"/><stop offset=".573" style="stop-opacity:1;stop-color:#7d00eb"/><stop offset="1" style="stop-opacity:1;stop-color:#7d00eb"/></linearGradient><linearGradient id="r" x1="0" x2="1" y1="0" y2="0" gradientTransform="matrix(4013.01 0 0 -4013.01 5888.54 9711.4)" gradientUnits="userSpaceOnUse" spreadMethod="pad"><stop offset="0" style="stop-opacity:1;stop-color:#cb87ff"/><stop offset="1" style="stop-opacity:1;stop-color:#7d00eb"/></linearGradient><clipPath id="a" clipPathUnits="userSpaceOnUse"><path d="M13108.5 11989.7c150.9-156.8 283.9-331 395.9-519.2-270.7-427.2-921.6-868.3-2350.9-1136.2-1676.52-314.1-2354.22-1329.3-2325.52-2067.5-9.41 11.9-18.6 23.9-27.8 36-86.51 729.7 482.8 1786.4 2087.42 2276 1413 431.1 2007.7 951.1 2220.9 1410.9z"/></clipPath><clipPath id="c" clipPathUnits="userSpaceOnUse"><path d="m12881.4 12201.4-.3-.6c-5.5-13.4-11.4-26.8-17.6-40.3-210-457.9-784.5-985.7-2116.2-1472.7-1333.92-487.9-1904.62-1341.2-1971.82-2030.8-11.2-115.2-8.4-225.9 7.3-329.5.1-.7.2-1.3.3-2-352.7 473.2-561.4 1059.9-561.4 1695.4 0 1568.5 1271.49 2840 2840.02 2840 692.3 0 1326.9-247.8 1819.7-659.5z"/></clipPath><clipPath id="e" clipPathUnits="userSpaceOnUse"><path d="M13874.5 10565.4c27.4-104.5 48.9-211.3 64.1-320 7-50 12.7-100.3 17.1-150.9-284.3-398-887.2-822.9-2072.4-1184.6-1134.7-346.1-1745.8-979.2-1970.49-1575.5-9.38 4.5-18.79 9.3-28.07 14-5.24 2.7-10.48 5.3-15.63 8.1 197.99 602.5 773.19 1258 1875.49 1661.3 1406.4 514.4 1958.7 1074.6 2129.9 1547.6z"/></clipPath><clipPath id="g" clipPathUnits="userSpaceOnUse"><path d="M13791.1 10808.2c6.2-21.6 12.2-43.4 18-65.3-173.2-478.4-731.8-1045-2154.3-1565.3-1114.9-407.9-1696.72-1070.9-1896.92-1680.3-362.6 187.6-679.5 451.1-929.9 769.5-17.5 451.1 228.7 1005.6 805.4 1440.4 367.12 276.7 868.02 505 1520.12 627.1 1429.3 267.9 2080.2 709 2350.9 1136.2 122.1-205.5 219.2-427.7 286.7-662.3z"/></clipPath><clipPath id="i" clipPathUnits="userSpaceOnUse"><path d="M13737.3 12613.2c0-211.6-171.6-383.1-383.2-383.1s-383.2 171.5-383.2 383.1c0 211.7 171.6 383.2 383.2 383.2s383.2-171.5 383.2-383.2z"/></clipPath><clipPath id="k" clipPathUnits="userSpaceOnUse"><path d="M13032.5 13090c0-135.3-109.7-245-245-245s-244.9 109.7-244.9 245 109.6 245 244.9 245 245-109.7 245-245z"/></clipPath><clipPath id="m" clipPathUnits="userSpaceOnUse"><path d="M13559.3 13530.9c0-113.6-92.2-205.7-205.8-205.7-113.6 0-205.8 92.1-205.8 205.7 0 113.7 92.2 205.8 205.8 205.8 113.6 0 205.8-92.1 205.8-205.8z"/></clipPath><clipPath id="o" clipPathUnits="userSpaceOnUse"><path d="M12881.1 12200.8c-5.5-13.4-11.4-26.8-17.6-40.3-425.3 253.8-922.5 399.7-1453.7 399.7-1568.52 0-2840.02-1271.5-2840.02-2840 0-376 73-734.9 205.7-1063.2-11.2-115.2-8.4-225.9 7.3-329.5-349.4 472-556.1 1056.1-556.1 1688.4 0 1568.5 1271.49 2840 2840.02 2840 689.9 0 1322.4-246 1814.4-655.1z"/></clipPath><clipPath id="q" clipPathUnits="userSpaceOnUse"><path d="M6106.64 12764.8h3576.81c139.58 0 218.09-78.5 218.09-218.1v-811.3c0-96-17.44-174.5-52.34-270.5L7982.29 6823.8c-43.63-113.4-130.86-165.8-253-165.8H6699.86c-157.03 0-226.82 96-165.75 253l1814.58 4510.3H6106.64c-139.59 0-218.1 78.5-218.1 218.1v907.3c0 139.6 78.51 218.1 218.1 218.1z"/></clipPath><path id="u" d="M1633.235 1962.747h4.776v291.308h-4.776z"/><path id="t" d="M1478.487 1588.375h939.531v914.446h-939.531z"/><path id="s" d="M1455.178 1625.004h283.044v71.593h-283.044z"/></defs><g clip-path="url(#a)" transform="matrix(.13333 0 0 -.13333 0 2680)"><path d="M13108.5 11989.7c150.9-156.8 283.9-331 395.9-519.2-270.7-427.2-921.6-868.3-2350.9-1136.2-1676.52-314.1-2354.22-1329.3-2325.52-2067.5-9.41 11.9-18.6 23.9-27.8 36-86.51 729.7 482.8 1786.4 2087.42 2276 1413 431.1 2007.7 951.1 2220.9 1410.9" style="fill:url(#b);fill-opacity:1;fill-rule:nonzero;stroke:none"/></g><g clip-path="url(#c)" transform="matrix(.13333 0 0 -.13333 0 2680)"><path d="m12881.4 12201.4-.3-.6c-5.5-13.4-11.4-26.8-17.6-40.3-210-457.9-784.5-985.7-2116.2-1472.7-1333.92-487.9-1904.62-1341.2-1971.82-2030.8-11.2-115.2-8.4-225.9 7.3-329.5.1-.7.2-1.3.3-2-352.7 473.2-561.4 1059.9-561.4 1695.4 0 1568.5 1271.49 2840 2840.02 2840 692.3 0 1326.9-247.8 1819.7-659.5" style="fill:url(#d);fill-opacity:1;fill-rule:nonzero;stroke:none"/></g><g clip-path="url(#e)" transform="matrix(.13333 0 0 -.13333 0 2680)"><path d="M13874.5 10565.4c27.4-104.5 48.9-211.3 64.1-320 7-50 12.7-100.3 17.1-150.9-284.3-398-887.2-822.9-2072.4-1184.6-1134.7-346.1-1745.8-979.2-1970.49-1575.5-9.38 4.5-18.79 9.3-28.07 14-5.24 2.7-10.48 5.3-15.63 8.1 197.99 602.5 773.19 1258 1875.49 1661.3 1406.4 514.4 1958.7 1074.6 2129.9 1547.6" style="fill:url(#f);fill-opacity:1;fill-rule:nonzero;stroke:none"/></g><g clip-path="url(#g)" transform="matrix(.13333 0 0 -.13333 0 2680)"><path d="M13791.1 10808.2c6.2-21.6 12.2-43.4 18-65.3-173.2-478.4-731.8-1045-2154.3-1565.3-1114.9-407.9-1696.72-1070.9-1896.92-1680.3-362.6 187.6-679.5 451.1-929.9 769.5-17.5 451.1 228.7 1005.6 805.4 1440.4 367.12 276.7 868.02 505 1520.12 627.1 1429.3 267.9 2080.2 709 2350.9 1136.2 122.1-205.5 219.2-427.7 286.7-662.3" style="fill:url(#h);fill-opacity:1;fill-rule:nonzero;stroke:none"/></g><g clip-path="url(#i)" transform="matrix(.13333 0 0 -.13333 0 2680)"><path d="M13737.3 12613.2c0-211.6-171.6-383.1-383.2-383.1s-383.2 171.5-383.2 383.1c0 211.7 171.6 383.2 383.2 383.2s383.2-171.5 383.2-383.2" style="fill:url(#j);fill-opacity:1;fill-rule:nonzero;stroke:none"/></g><g clip-path="url(#k)" transform="matrix(.13333 0 0 -.13333 0 2680)"><path d="M13032.5 13090c0-135.3-109.7-245-245-245s-244.9 109.7-244.9 245 109.6 245 244.9 245 245-109.7 245-245" style="fill:url(#l);fill-opacity:1;fill-rule:nonzero;stroke:none"/></g><g clip-path="url(#m)" transform="matrix(.13333 0 0 -.13333 0 2680)"><path d="M13559.3 13530.9c0-113.6-92.2-205.7-205.8-205.7-113.6 0-205.8 92.1-205.8 205.7 0 113.7 92.2 205.8 205.8 205.8 113.6 0 205.8-92.1 205.8-205.8" style="fill:url(#n);fill-opacity:1;fill-rule:nonzero;stroke:none"/></g><g clip-path="url(#o)" transform="matrix(.13333 0 0 -.13333 0 2680)"><path d="M12881.1 12200.8c-5.5-13.4-11.4-26.8-17.6-40.3-425.3 253.8-922.5 399.7-1453.7 399.7-1568.52 0-2840.02-1271.5-2840.02-2840 0-376 73-734.9 205.7-1063.2-11.2-115.2-8.4-225.9 7.3-329.5-349.4 472-556.1 1056.1-556.1 1688.4 0 1568.5 1271.49 2840 2840.02 2840 689.9 0 1322.4-246 1814.4-655.1" style="fill:url(#p);fill-opacity:1;fill-rule:nonzero;stroke:none"/></g><g clip-path="url(#q)" transform="matrix(.13333 0 0 -.13333 0 2680)"><path d="M6106.64 12764.8h3576.81c139.58 0 218.09-78.5 218.09-218.1v-811.3c0-96-17.44-174.5-52.34-270.5L7982.29 6823.8c-43.63-113.4-130.86-165.8-253-165.8H6699.86c-157.03 0-226.82 96-165.75 253l1814.58 4510.3H6106.64c-139.59 0-218.1 78.5-218.1 218.1v907.3c0 139.6 78.51 218.1 218.1 218.1" style="fill:url(#r);fill-opacity:1;fill-rule:nonzero;stroke:none"/></g><text xml:space="preserve" style="font-size:266.667px;white-space:pre;shape-inside:url(#t);fill:#c5ffff" transform="translate(-52.53 -396.37)"><tspan x="1478.488" y="1831.663"><tspan style="font-family:&quot;Apple Color Emoji&quot;;-inkscape-font-specification:&quot;Apple Color Emoji&quot;">
</tspan></tspan><tspan x="1478.488" y="2164.997">
</tspan></text></svg>