<svg xmlns="http://www.w3.org/2000/svg" xml:space="preserve" width="3773.6" height="3764.24"><defs><clipPath id="a" clipPathUnits="userSpaceOnUse"><path d="M0 0h28302v28232H0Z"/></clipPath><clipPath id="b" clipPathUnits="userSpaceOnUse"><path d="m7477.07 11305.8 1715.39-1715.5L27833.8 28231.8 21061.6 26995c-74.7-13.6-142.5-52.5-192-110.2zM1832.69 4787.6l1541.02 1540.8 2955.07-2955.1-1540.91-1540.8Zm-904.807-904.8L1363.28 4318l2954.97-2955.1-435.18-435.201ZM7635 3349c-221.08 0-428.76 85.8-584.67 241.6L3591.07 7050c-322.39 322.3-322.39 847.1 0 1169.3l308.43 308.6 4629.04-4628.7-308.87-308.8C8063.76 3434.8 7856.3 3349 7635 3349ZM2087.53 0C1527.97 0 1003.3 216.5 609.996 609.801 216.688 1003.2 0 1527.9 0 2087.4c0 486.9 164.008 947.6 466.133 1318.1L3405.79 465.801C3035.22 163.898 2574.49 0 2087.53 0Zm8010.57 3672.8c260.8 0 505.7 101 689 284.3l861 861.1c183.5 183.5 284.4 428 284.4 688.7 0 260.9-100.9 505.4-284.4 688.9l-5451.58 5451.8c-183.6 183-428.09 284.1-688.9 284.1-260.82 0-505.31-100.9-688.79-284.1l-861.02-861.1c-183.48-183.5-284.56-428.2-284.56-688.9s101.08-505.2 284.56-688.9l5451.34-5451.2c183.48-183.7 428.31-284.7 688.95-284.7zm-436.02 5447.9L28302.1 27760.8l-1307.8-6703.3c-14.4-73-52.9-139.4-109.7-188.1L11305.9 7476.8Z"/></clipPath></defs><g clip-path="url(#a)" transform="matrix(.13333 0 0 -.13333 0 3764.24)"><g clip-path="url(#b)"><path d="M0 16300h31.976V0H0v16300" style="fill:#ec297b;fill-opacity:1;fill-rule:evenodd;stroke:none" transform="scale(1.73201)"/><path d="M.065 16300h95.798V0H.065v16300" style="fill:#eb297b;fill-opacity:1;fill-rule:evenodd;stroke:none" transform="scale(1.73201)"/><path d="M63.95 16300h95.668V0H63.95v16300" style="fill:#ea297a;fill-opacity:1;fill-rule:evenodd;stroke:none" transform="scale(1.73201)"/><path d="M127.773 16300h95.732V0h-95.732v16300" style="fill:#e9297a;fill-opacity:1;fill-rule:evenodd;stroke:none" transform="scale(1.73201)"/><path d="M191.529 16300h95.797V0h-95.797v16300" style="fill:#e8287a;fill-opacity:1;fill-rule:evenodd;stroke:none" transform="scale(1.73201)"/><path d="M255.416 16300h95.731V0h-95.731v16300" style="fill:#e62879;fill-opacity:1;fill-rule:evenodd;stroke:none" transform="scale(1.73201)"/><path d="M319.237 16300h95.731V0h-95.731v16300" style="fill:#e52879;fill-opacity:1;fill-rule:evenodd;stroke:none" transform="scale(1.73201)"/><path d="M383.058 16300h95.734V0h-95.734v16300" style="fill:#e42879;fill-opacity:1;fill-rule:evenodd;stroke:none" transform="scale(1.73201)"/><path d="M446.881 16300h95.73V0h-95.73v16300" style="fill:#e32878;fill-opacity:1;fill-rule:evenodd;stroke:none" transform="scale(1.73201)"/><path d="M510.702 16300h95.795V0h-95.795v16300" style="fill:#e22878;fill-opacity:1;fill-rule:evenodd;stroke:none" transform="scale(1.73201)"/><path d="M574.521 16300h95.734V0h-95.734v16300" style="fill:#e12878;fill-opacity:1;fill-rule:evenodd;stroke:none" transform="scale(1.73201)"/><path d="M638.408 16300h95.732V0h-95.732v16300" style="fill:#e02877;fill-opacity:1;fill-rule:evenodd;stroke:none" transform="scale(1.73201)"/><path d="M702.166 16300h95.795V0h-95.795v16300" style="fill:#df2777;fill-opacity:1;fill-rule:evenodd;stroke:none" transform="scale(1.73201)"/><path d="M766.05 16300h95.734V0H766.05v16300" style="fill:#de2777;fill-opacity:1;fill-rule:evenodd;stroke:none" transform="scale(1.73201)"/><path d="M829.874 16300h95.732V0h-95.732v16300" style="fill:#dc2776;fill-opacity:1;fill-rule:evenodd;stroke:none" transform="scale(1.73201)"/><path d="M893.695 16300h95.732V0h-95.732v16300" style="fill:#db2776;fill-opacity:1;fill-rule:evenodd;stroke:none" transform="scale(1.73201)"/><path d="M957.516 16300h95.734V0h-95.734v16300" style="fill:#da2776;fill-opacity:1;fill-rule:evenodd;stroke:none" transform="scale(1.73201)"/><path d="M1021.34 16300h95.79V0h-95.79v16300" style="fill:#d92775;fill-opacity:1;fill-rule:evenodd;stroke:none" transform="scale(1.73201)"/><path d="M1085.16 16300h95.8V0h-95.8v16300" style="fill:#d82775;fill-opacity:1;fill-rule:evenodd;stroke:none" transform="scale(1.73201)"/><path d="M1149.05 16300h95.73V0h-95.73v16300" style="fill:#d72675;fill-opacity:1;fill-rule:evenodd;stroke:none" transform="scale(1.73201)"/><path d="M1212.8 16300h95.8V0h-95.8v16300" style="fill:#d62674;fill-opacity:1;fill-rule:evenodd;stroke:none" transform="scale(1.73201)"/><path d="M1276.69 16300h95.73V0h-95.73v16300" style="fill:#d62674;fill-opacity:1;fill-rule:evenodd;stroke:none" transform="scale(1.73201)"/><path d="M1340.51 16300h95.73V0h-95.73v16300" style="fill:#d52674;fill-opacity:1;fill-rule:evenodd;stroke:none" transform="scale(1.73201)"/><path d="M1404.33 16300h95.73V0h-95.73v16300" style="fill:#d42674;fill-opacity:1;fill-rule:evenodd;stroke:none" transform="scale(1.73201)"/><path d="M1468.15 16300h95.74V0h-95.74v16300" style="fill:#d32673;fill-opacity:1;fill-rule:evenodd;stroke:none" transform="scale(1.73201)"/><path d="M1531.97 16300h95.74V0h-95.74v16300" style="fill:#d22673;fill-opacity:1;fill-rule:evenodd;stroke:none" transform="scale(1.73201)"/><path d="M1595.8 16300h95.79V0h-95.79v16300" style="fill:#d12573;fill-opacity:1;fill-rule:evenodd;stroke:none" transform="scale(1.73201)"/><path d="M1659.68 16300h95.67V0h-95.67v16300" style="fill:#d02572;fill-opacity:1;fill-rule:evenodd;stroke:none" transform="scale(1.73201)"/><path d="M1723.44 16300h95.8V0h-95.8v16300" style="fill:#cf2572;fill-opacity:1;fill-rule:evenodd;stroke:none" transform="scale(1.73201)"/><path d="M1787.33 16300h95.73V0h-95.73v16300" style="fill:#ce2572;fill-opacity:1;fill-rule:evenodd;stroke:none" transform="scale(1.73201)"/><path d="M1851.15 16300h95.73V0h-95.73v16300" style="fill:#cd2571;fill-opacity:1;fill-rule:evenodd;stroke:none" transform="scale(1.73201)"/><path d="M1914.97 16300h95.73V0h-95.73v16300" style="fill:#cc2571;fill-opacity:1;fill-rule:evenodd;stroke:none" transform="scale(1.73201)"/><path d="M1978.79 16300h95.73V0h-95.73v16300" style="fill:#cb2571;fill-opacity:1;fill-rule:evenodd;stroke:none" transform="scale(1.73201)"/><path d="M2042.61 16300h95.74V0h-95.74v16300" style="fill:#ca2470;fill-opacity:1;fill-rule:evenodd;stroke:none" transform="scale(1.73201)"/><path d="M2106.43 16300h95.8V0h-95.8v16300" style="fill:#c92470;fill-opacity:1;fill-rule:evenodd;stroke:none" transform="scale(1.73201)"/><path d="M2170.32 16300h95.67V0h-95.67v16300" style="fill:#c82470;fill-opacity:1;fill-rule:evenodd;stroke:none" transform="scale(1.73201)"/><path d="M2234.14 16300h95.73V0h-95.73v16300" style="fill:#c7246f;fill-opacity:1;fill-rule:evenodd;stroke:none" transform="scale(1.73201)"/><path d="M2297.96 16300h95.74V0h-95.74v16300" style="fill:#c6246f;fill-opacity:1;fill-rule:evenodd;stroke:none" transform="scale(1.73201)"/><path d="M2361.79 16300h95.73V0h-95.73v16300" style="fill:#c5246f;fill-opacity:1;fill-rule:evenodd;stroke:none" transform="scale(1.73201)"/><path d="M2425.61 16300h95.73V0h-95.73v16300" style="fill:#c4246e;fill-opacity:1;fill-rule:evenodd;stroke:none" transform="scale(1.73201)"/><path d="M2489.43 16300h95.73V0h-95.73v16300" style="fill:#c3236e;fill-opacity:1;fill-rule:evenodd;stroke:none" transform="scale(1.73201)"/><path d="M2553.25 16300h95.73V0h-95.73v16300" style="fill:#c2236e;fill-opacity:1;fill-rule:evenodd;stroke:none" transform="scale(1.73201)"/><path d="M2617.07 16300h95.8V0h-95.8v16300" style="fill:#c1236d;fill-opacity:1;fill-rule:evenodd;stroke:none" transform="scale(1.73201)"/><path d="M2680.96 16300h95.66V0h-95.66v16300" style="fill:#c0236d;fill-opacity:1;fill-rule:evenodd;stroke:none" transform="scale(1.73201)"/><path d="M2744.78 16300h95.73V0h-95.73v16300" style="fill:#c0236d;fill-opacity:1;fill-rule:evenodd;stroke:none" transform="scale(1.73201)"/><path d="M2808.6 16300h95.73V0h-95.73v16300" style="fill:#bf236d;fill-opacity:1;fill-rule:evenodd;stroke:none" transform="scale(1.73201)"/><path d="M2872.42 16300h95.73V0h-95.73v16300" style="fill:#be236d;fill-opacity:1;fill-rule:evenodd;stroke:none" transform="scale(1.73201)"/><path d="M2936.24 16300h95.74V0h-95.74v16300" style="fill:#be236c;fill-opacity:1;fill-rule:evenodd;stroke:none" transform="scale(1.73201)"/><path d="M3000.06 16300h95.74V0h-95.74v16300" style="fill:#bd236c;fill-opacity:1;fill-rule:evenodd;stroke:none" transform="scale(1.73201)"/><path d="M3063.89 16300h95.79V0h-95.79v16300" style="fill:#bc236c;fill-opacity:1;fill-rule:evenodd;stroke:none" transform="scale(1.73201)"/><path d="M3127.71 16300h95.79V0h-95.79v16300" style="fill:#bb236c;fill-opacity:1;fill-rule:evenodd;stroke:none" transform="scale(1.73201)"/><path d="M3191.59 16300h95.74V0h-95.74v16300" style="fill:#bb226c;fill-opacity:1;fill-rule:evenodd;stroke:none" transform="scale(1.73201)"/><path d="M3255.42 16300h95.73V0h-95.73v16300" style="fill:#ba226b;fill-opacity:1;fill-rule:evenodd;stroke:none" transform="scale(1.73201)"/><path d="M3319.17 16300h95.8V0h-95.8v16300" style="fill:#b9226b;fill-opacity:1;fill-rule:evenodd;stroke:none" transform="scale(1.73201)"/><path d="M3383.06 16300h95.73V0h-95.73v16300" style="fill:#b9226b;fill-opacity:1;fill-rule:evenodd;stroke:none" transform="scale(1.73201)"/><path d="M3446.88 16300h95.73V0h-95.73v16300" style="fill:#b8226b;fill-opacity:1;fill-rule:evenodd;stroke:none" transform="scale(1.73201)"/><path d="M3510.7 16300h95.74V0h-95.74v16300" style="fill:#b7226b;fill-opacity:1;fill-rule:evenodd;stroke:none" transform="scale(1.73201)"/><path d="M3574.52 16300h95.74V0h-95.74v16300" style="fill:#b7226b;fill-opacity:1;fill-rule:evenodd;stroke:none" transform="scale(1.73201)"/><path d="M3638.35 16300h95.79V0h-95.79v16300" style="fill:#b6226a;fill-opacity:1;fill-rule:evenodd;stroke:none" transform="scale(1.73201)"/><path d="M3702.23 16300h95.73V0h-95.73v16300" style="fill:#b5226a;fill-opacity:1;fill-rule:evenodd;stroke:none" transform="scale(1.73201)"/><path d="M3766.05 16300h95.74V0h-95.74v16300" style="fill:#b5226a;fill-opacity:1;fill-rule:evenodd;stroke:none" transform="scale(1.73201)"/><path d="M3829.81 16300h95.8V0h-95.8v16300" style="fill:#b4226a;fill-opacity:1;fill-rule:evenodd;stroke:none" transform="scale(1.73201)"/><path d="M3893.7 16300h95.73V0h-95.73v16300" style="fill:#b3226a;fill-opacity:1;fill-rule:evenodd;stroke:none" transform="scale(1.73201)"/><path d="M3957.52 16300h95.73V0h-95.73v16300" style="fill:#b32269;fill-opacity:1;fill-rule:evenodd;stroke:none" transform="scale(1.73201)"/><path d="M4021.34 16300h95.73V0h-95.73v16300" style="fill:#b22269;fill-opacity:1;fill-rule:evenodd;stroke:none" transform="scale(1.73201)"/><path d="M4085.16 16300h95.73V0h-95.73v16300" style="fill:#b12169;fill-opacity:1;fill-rule:evenodd;stroke:none" transform="scale(1.73201)"/><path d="M4148.98 16300h95.8V0h-95.8v16300" style="fill:#b12169;fill-opacity:1;fill-rule:evenodd;stroke:none" transform="scale(1.73201)"/><path d="M4212.87 16300h95.73V0h-95.73v16300" style="fill:#b02169;fill-opacity:1;fill-rule:evenodd;stroke:none" transform="scale(1.73201)"/><path d="M4276.69 16300h95.73V0h-95.73v16300" style="fill:#af2169;fill-opacity:1;fill-rule:evenodd;stroke:none" transform="scale(1.73201)"/><path d="M4340.51 16300h95.73V0h-95.73v16300" style="fill:#af2168;fill-opacity:1;fill-rule:evenodd;stroke:none" transform="scale(1.73201)"/><path d="M4404.33 16300h95.74V0h-95.74v16300" style="fill:#ae2168;fill-opacity:1;fill-rule:evenodd;stroke:none" transform="scale(1.73201)"/><path d="M4468.16 16300h95.73V0h-95.73v16300" style="fill:#ad2168;fill-opacity:1;fill-rule:evenodd;stroke:none" transform="scale(1.73201)"/><path d="M4531.98 16300h95.72V0h-95.72v16300" style="fill:#ad2168;fill-opacity:1;fill-rule:evenodd;stroke:none" transform="scale(1.73201)"/><path d="M4595.8 16300h95.73V0h-95.73v16300" style="fill:#ac2168;fill-opacity:1;fill-rule:evenodd;stroke:none" transform="scale(1.73201)"/><path d="M4659.62 16300h95.8V0h-95.8v16300" style="fill:#ac2168;fill-opacity:1;fill-rule:evenodd;stroke:none" transform="scale(1.73201)"/><path d="M4723.44 16300h95.8V0h-95.8v16300" style="fill:#ac2168;fill-opacity:1;fill-rule:evenodd;stroke:none" transform="scale(1.73201)"/><path d="M4787.33 16300h95.73V0h-95.73v16300" style="fill:#ab2167;fill-opacity:1;fill-rule:evenodd;stroke:none" transform="scale(1.73201)"/><path d="M4851.15 16300h95.73V0h-95.73v16300" style="fill:#ab2167;fill-opacity:1;fill-rule:evenodd;stroke:none" transform="scale(1.73201)"/><path d="M4914.97 16300h95.73V0h-95.73v16300" style="fill:#ab2167;fill-opacity:1;fill-rule:evenodd;stroke:none" transform="scale(1.73201)"/><path d="M4978.79 16300h95.74V0h-95.74v16300" style="fill:#aa2167;fill-opacity:1;fill-rule:evenodd;stroke:none" transform="scale(1.73201)"/><path d="M5042.62 16300h95.79V0h-95.79v16300" style="fill:#aa2067;fill-opacity:1;fill-rule:evenodd;stroke:none" transform="scale(1.73201)"/><path d="M5106.43 16300h95.73V0h-95.73v16300" style="fill:#aa2067;fill-opacity:1;fill-rule:evenodd;stroke:none" transform="scale(1.73201)"/><path d="M5170.26 16300h95.79V0h-95.79v16300" style="fill:#a92067;fill-opacity:1;fill-rule:evenodd;stroke:none" transform="scale(1.73201)"/><path d="M5234.07 16300h95.81V0h-95.81v16300" style="fill:#a92066;fill-opacity:1;fill-rule:evenodd;stroke:none" transform="scale(1.73201)"/><path d="M5297.97 16300h95.73V0h-95.73v16300" style="fill:#a82066;fill-opacity:1;fill-rule:evenodd;stroke:none" transform="scale(1.73201)"/><path d="M5361.78 16300h95.74V0h-95.74v16300" style="fill:#a82066;fill-opacity:1;fill-rule:evenodd;stroke:none" transform="scale(1.73201)"/><path d="M5425.61 16300h95.73V0h-95.73v16300" style="fill:#a82066;fill-opacity:1;fill-rule:evenodd;stroke:none" transform="scale(1.73201)"/><path d="M5489.42 16300h95.74V0h-95.74v16300" style="fill:#a72066;fill-opacity:1;fill-rule:evenodd;stroke:none" transform="scale(1.73201)"/><path d="M5553.25 16300h95.8V0h-95.8v16300" style="fill:#a72066;fill-opacity:1;fill-rule:evenodd;stroke:none" transform="scale(1.73201)"/><path d="M5617.07 16300h95.73V0h-95.73v16300" style="fill:#a72066;fill-opacity:1;fill-rule:evenodd;stroke:none" transform="scale(1.73201)"/><path d="M5680.89 16300h95.74V0h-95.74v16300" style="fill:#a62066;fill-opacity:1;fill-rule:evenodd;stroke:none" transform="scale(1.73201)"/><path d="M5744.71 16300h95.78V0h-95.78v16300" style="fill:#a62065;fill-opacity:1;fill-rule:evenodd;stroke:none" transform="scale(1.73201)"/><path d="M5808.62 16300h95.73V0h-95.73v16300" style="fill:#a62065;fill-opacity:1;fill-rule:evenodd;stroke:none" transform="scale(1.73201)"/><path d="M5872.42 16300h95.72V0h-95.72v16300" style="fill:#a52065;fill-opacity:1;fill-rule:evenodd;stroke:none" transform="scale(1.73201)"/><path d="M5936.22 16300H6032V0h-95.78v16300" style="fill:#a52065;fill-opacity:1;fill-rule:evenodd;stroke:none" transform="scale(1.73201)"/><path d="M6000.07 16300h95.73V0h-95.73v16300" style="fill:#a51f65;fill-opacity:1;fill-rule:evenodd;stroke:none" transform="scale(1.73201)"/><path d="M6063.87 16300h95.79V0h-95.79v16300" style="fill:#a41f65;fill-opacity:1;fill-rule:evenodd;stroke:none" transform="scale(1.73201)"/><path d="M6127.73 16300h95.73V0h-95.73v16300" style="fill:#a41f65;fill-opacity:1;fill-rule:evenodd;stroke:none" transform="scale(1.73201)"/><path d="M6191.59 16300h95.66V0h-95.66v16300" style="fill:#a31f65;fill-opacity:1;fill-rule:evenodd;stroke:none" transform="scale(1.73201)"/><path d="M6255.33 16300h95.84V0h-95.84v16300" style="fill:#a31f64;fill-opacity:1;fill-rule:evenodd;stroke:none" transform="scale(1.73201)"/><path d="M6319.24 16300h95.73V0h-95.73v16300" style="fill:#a31f64;fill-opacity:1;fill-rule:evenodd;stroke:none" transform="scale(1.73201)"/><path d="M6383.04 16300h95.73V0h-95.73v16300" style="fill:#a21f64;fill-opacity:1;fill-rule:evenodd;stroke:none" transform="scale(1.73201)"/><path d="M6446.9 16300h95.72V0h-95.72v16300" style="fill:#a21f64;fill-opacity:1;fill-rule:evenodd;stroke:none" transform="scale(1.73201)"/><path d="M6510.69 16300h95.73V0h-95.73v16300" style="fill:#a21f64;fill-opacity:1;fill-rule:evenodd;stroke:none" transform="scale(1.73201)"/><path d="M6574.55 16300h95.78V0h-95.78v16300" style="fill:#a21f64;fill-opacity:1;fill-rule:evenodd;stroke:none" transform="scale(1.73201)"/><path d="M6638.35 16300h95.72V0h-95.72v16300" style="fill:#a21f64;fill-opacity:1;fill-rule:evenodd;stroke:none" transform="scale(1.73201)"/><path d="M6702.2 16300h95.67V0h-95.67v16300" style="fill:#a11f64;fill-opacity:1;fill-rule:evenodd;stroke:none" transform="scale(1.73201)"/><path d="M6766 16300h95.79V0H6766v16300" style="fill:#a11f64;fill-opacity:1;fill-rule:evenodd;stroke:none" transform="scale(1.73201)"/><path d="M6829.86 16300h95.73V0h-95.73v16300" style="fill:#a11f64;fill-opacity:1;fill-rule:evenodd;stroke:none" transform="scale(1.73201)"/><path d="M6893.72 16300h95.72V0h-95.72v16300" style="fill:#a11f64;fill-opacity:1;fill-rule:evenodd;stroke:none" transform="scale(1.73201)"/><path d="M6957.51 16300h95.73V0h-95.73v16300" style="fill:#a11f64;fill-opacity:1;fill-rule:evenodd;stroke:none" transform="scale(1.73201)"/><path d="M7021.31 16300h95.79V0h-95.79v16300" style="fill:#a11f64;fill-opacity:1;fill-rule:evenodd;stroke:none" transform="scale(1.73201)"/><path d="M7085.17 16300h95.73V0h-95.73v16300" style="fill:#a11f64;fill-opacity:1;fill-rule:evenodd;stroke:none" transform="scale(1.73201)"/><path d="M7148.97 16300h95.78V0h-95.78v16300" style="fill:#a11f64;fill-opacity:1;fill-rule:evenodd;stroke:none" transform="scale(1.73201)"/><path d="M7212.88 16300h95.67V0h-95.67v16300" style="fill:#a01f64;fill-opacity:1;fill-rule:evenodd;stroke:none" transform="scale(1.73201)"/><path d="M7276.62 16300h95.79V0h-95.79v16300" style="fill:#a01f64;fill-opacity:1;fill-rule:evenodd;stroke:none" transform="scale(1.73201)"/><path d="M7340.54 16300h95.72V0h-95.72v16300" style="fill:#a01f64;fill-opacity:1;fill-rule:evenodd;stroke:none" transform="scale(1.73201)"/><path d="M7404.33 16300h95.73V0h-95.73v16300" style="fill:#a01f64;fill-opacity:1;fill-rule:evenodd;stroke:none" transform="scale(1.73201)"/><path d="M7468.14 16300h95.72V0h-95.72v16300" style="fill:#a01f63;fill-opacity:1;fill-rule:evenodd;stroke:none" transform="scale(1.73201)"/><path d="M7531.99 16300h95.73V0h-95.73v16300" style="fill:#a01f63;fill-opacity:1;fill-rule:evenodd;stroke:none" transform="scale(1.73201)"/><path d="M7595.79 16300h95.73V0h-95.73v16300" style="fill:#a01f63;fill-opacity:1;fill-rule:evenodd;stroke:none" transform="scale(1.73201)"/><path d="M7659.65 16300h95.78V0h-95.78v16300" style="fill:#a01f63;fill-opacity:1;fill-rule:evenodd;stroke:none" transform="scale(1.73201)"/><path d="M7723.5 16300h95.67V0h-95.67v16300" style="fill:#9f1f63;fill-opacity:1;fill-rule:evenodd;stroke:none" transform="scale(1.73201)"/><path d="M7787.24 16300h95.85V0h-95.85v16300" style="fill:#9f1f63;fill-opacity:1;fill-rule:evenodd;stroke:none" transform="scale(1.73201)"/><path d="M7851.16 16300h95.72V0h-95.72v16300" style="fill:#9f1f63;fill-opacity:1;fill-rule:evenodd;stroke:none" transform="scale(1.73201)"/><path d="M7914.96 16300h95.72V0h-95.72v16300" style="fill:#9f1f63;fill-opacity:1;fill-rule:evenodd;stroke:none" transform="scale(1.73201)"/><path d="M7978.81 16300h95.73V0h-95.73v16300" style="fill:#9f1f63;fill-opacity:1;fill-rule:evenodd;stroke:none" transform="scale(1.73201)"/><path d="M8042.61 16300h95.73V0h-95.73v16300" style="fill:#9f1f63;fill-opacity:1;fill-rule:evenodd;stroke:none" transform="scale(1.73201)"/><path d="M8106.41 16300h95.78V0h-95.78v16300" style="fill:#9f1f63;fill-opacity:1;fill-rule:evenodd;stroke:none" transform="scale(1.73201)"/><path d="M8170.27 16300h95.78V0h-95.78v16300" style="fill:#9e1f63;fill-opacity:1;fill-rule:evenodd;stroke:none" transform="scale(1.73201)"/><path d="M8234.06 16300h95.73V0h-95.73v16300" style="fill:#9e1f63;fill-opacity:1;fill-rule:evenodd;stroke:none" transform="scale(1.73201)"/><path d="M8297.98 16300h95.72V0h-95.72v16300" style="fill:#9e1f63;fill-opacity:1;fill-rule:evenodd;stroke:none" transform="scale(1.73201)"/><path d="M8361.72 16300h95.78V0h-95.78v16300" style="fill:#9e1f63;fill-opacity:1;fill-rule:evenodd;stroke:none" transform="scale(1.73201)"/><path d="M8425.52 16300h95.84V0h-95.84v16300" style="fill:#9e1f63;fill-opacity:1;fill-rule:evenodd;stroke:none" transform="scale(1.73201)"/><path d="M8489.37 16300h95.79V0h-95.79v16300" style="fill:#9e1f64;fill-opacity:1;fill-rule:evenodd;stroke:none" transform="scale(1.73201)"/><path d="M8553.29 16300h95.67V0h-95.67v16300" style="fill:#9e1f64;fill-opacity:1;fill-rule:evenodd;stroke:none" transform="scale(1.73201)"/><path d="M8617.03 16300h95.78V0h-95.78v16300" style="fill:#9e1f64;fill-opacity:1;fill-rule:evenodd;stroke:none" transform="scale(1.73201)"/><path d="M8680.94 16300h95.67V0h-95.67v16300" style="fill:#9d1f65;fill-opacity:1;fill-rule:evenodd;stroke:none" transform="scale(1.73201)"/><path d="M8744.8 16300h95.67V0h-95.67v16300" style="fill:#9d1f65;fill-opacity:1;fill-rule:evenodd;stroke:none" transform="scale(1.73201)"/><path d="M8808.6 16300h95.67V0h-95.67v16300" style="fill:#9d1f65;fill-opacity:1;fill-rule:evenodd;stroke:none" transform="scale(1.73201)"/><path d="M8872.4 16300h95.67V0h-95.67v16300" style="fill:#9d2066;fill-opacity:1;fill-rule:evenodd;stroke:none" transform="scale(1.73201)"/><path d="M8936.25 16300h95.79V0h-95.79v16300" style="fill:#9d2066;fill-opacity:1;fill-rule:evenodd;stroke:none" transform="scale(1.73201)"/><path d="M9000.05 16300h95.67V0h-95.67v16300" style="fill:#9d2067;fill-opacity:1;fill-rule:evenodd;stroke:none" transform="scale(1.73201)"/><path d="M9063.91 16300h95.78V0h-95.78v16300" style="fill:#9d2067;fill-opacity:1;fill-rule:evenodd;stroke:none" transform="scale(1.73201)"/><path d="M9127.71 16300h95.78V0h-95.78v16300" style="fill:#9d2067;fill-opacity:1;fill-rule:evenodd;stroke:none" transform="scale(1.73201)"/><path d="M9191.51 16300h95.84V0h-95.84v16300" style="fill:#9c2068;fill-opacity:1;fill-rule:evenodd;stroke:none" transform="scale(1.73201)"/><path d="M9255.36 16300h95.79V0h-95.79v16300" style="fill:#9c2068;fill-opacity:1;fill-rule:evenodd;stroke:none" transform="scale(1.73201)"/><path d="M9319.16 16300h95.79V0h-95.79v16300" style="fill:#9c2069;fill-opacity:1;fill-rule:evenodd;stroke:none" transform="scale(1.73201)"/><path d="M9383.02 16300h95.78V0h-95.78v16300" style="fill:#9c2069;fill-opacity:1;fill-rule:evenodd;stroke:none" transform="scale(1.73201)"/><path d="M9446.82 16300h95.78V0h-95.78v16300" style="fill:#9c2069;fill-opacity:1;fill-rule:evenodd;stroke:none" transform="scale(1.73201)"/><path d="M9510.61 16300h95.85V0h-95.85v16300" style="fill:#9c206a;fill-opacity:1;fill-rule:evenodd;stroke:none" transform="scale(1.73201)"/><path d="M9574.59 16300h95.66V0h-95.66v16300" style="fill:#9c206a;fill-opacity:1;fill-rule:evenodd;stroke:none" transform="scale(1.73201)"/><path d="M9638.27 16300h95.78V0h-95.78v16300" style="fill:#9c206a;fill-opacity:1;fill-rule:evenodd;stroke:none" transform="scale(1.73201)"/><path d="M9702.24 16300h95.67V0h-95.67v16300" style="fill:#9b206b;fill-opacity:1;fill-rule:evenodd;stroke:none" transform="scale(1.73201)"/><path d="M9766.04 16300h95.67V0h-95.67v16300" style="fill:#9b216b;fill-opacity:1;fill-rule:evenodd;stroke:none" transform="scale(1.73201)"/><path d="M9829.9 16300h95.66V0h-95.66v16300" style="fill:#9b216c;fill-opacity:1;fill-rule:evenodd;stroke:none" transform="scale(1.73201)"/><path d="M9893.69 16300h95.68V0h-95.68v16300" style="fill:#9b216c;fill-opacity:1;fill-rule:evenodd;stroke:none" transform="scale(1.73201)"/><path d="M9957.49 16300h95.81V0h-95.81v16300" style="fill:#9b216c;fill-opacity:1;fill-rule:evenodd;stroke:none" transform="scale(1.73201)"/><path d="M10021.4 16300h95.7V0h-95.7v16300" style="fill:#9b216d;fill-opacity:1;fill-rule:evenodd;stroke:none" transform="scale(1.73201)"/><path d="M10085.1 16300h95.7V0h-95.7v16300" style="fill:#9b216d;fill-opacity:1;fill-rule:evenodd;stroke:none" transform="scale(1.73201)"/><path d="M10149 16300h95.8V0h-95.8v16300" style="fill:#9b216e;fill-opacity:1;fill-rule:evenodd;stroke:none" transform="scale(1.73201)"/><path d="M10212.8 16300h95.8V0h-95.8v16300" style="fill:#9a216e;fill-opacity:1;fill-rule:evenodd;stroke:none" transform="scale(1.73201)"/><path d="M10276.6 16300h95.8V0h-95.8v16300" style="fill:#9a216e;fill-opacity:1;fill-rule:evenodd;stroke:none" transform="scale(1.73201)"/><path d="M10340.5 16300h95.7V0h-95.7v16300" style="fill:#9a216f;fill-opacity:1;fill-rule:evenodd;stroke:none" transform="scale(1.73201)"/><path d="M10404.3 16300h95.7V0h-95.7v16300" style="fill:#9a216f;fill-opacity:1;fill-rule:evenodd;stroke:none" transform="scale(1.73201)"/><path d="M10468.1 16300h95.8V0h-95.8v16300" style="fill:#9a216f;fill-opacity:1;fill-rule:evenodd;stroke:none" transform="scale(1.73201)"/><path d="M10531.9 16300h95.8V0h-95.8v16300" style="fill:#9a2170;fill-opacity:1;fill-rule:evenodd;stroke:none" transform="scale(1.73201)"/><path d="M10595.9 16300h95.7V0h-95.7v16300" style="fill:#9a2170;fill-opacity:1;fill-rule:evenodd;stroke:none" transform="scale(1.73201)"/><path d="M10659.7 16300h95.7V0h-95.7v16300" style="fill:#9a2271;fill-opacity:1;fill-rule:evenodd;stroke:none" transform="scale(1.73201)"/><path d="M10723.5 16300h95.7V0h-95.7v16300" style="fill:#992271;fill-opacity:1;fill-rule:evenodd;stroke:none" transform="scale(1.73201)"/><path d="M10787.3 16300h95.7V0h-95.7v16300" style="fill:#992271;fill-opacity:1;fill-rule:evenodd;stroke:none" transform="scale(1.73201)"/><path d="M10851.1 16300h95.7V0h-95.7v16300" style="fill:#992272;fill-opacity:1;fill-rule:evenodd;stroke:none" transform="scale(1.73201)"/><path d="M10915 16300h95.7V0h-95.7v16300" style="fill:#992272;fill-opacity:1;fill-rule:evenodd;stroke:none" transform="scale(1.73201)"/><path d="M10978.8 16300h95.8V0h-95.8v16300" style="fill:#992272;fill-opacity:1;fill-rule:evenodd;stroke:none" transform="scale(1.73201)"/><path d="M11042.6 16300h95.8V0h-95.8v16300" style="fill:#992273;fill-opacity:1;fill-rule:evenodd;stroke:none" transform="scale(1.73201)"/><path d="M11106.4 16300h95.7V0h-95.7v16300" style="fill:#992273;fill-opacity:1;fill-rule:evenodd;stroke:none" transform="scale(1.73201)"/><path d="M11170.2 16300h95.8V0h-95.8v16300" style="fill:#992274;fill-opacity:1;fill-rule:evenodd;stroke:none" transform="scale(1.73201)"/><path d="M11234.1 16300h95.8V0h-95.8v16300" style="fill:#982274;fill-opacity:1;fill-rule:evenodd;stroke:none" transform="scale(1.73201)"/><path d="M11297.9 16300h95.8V0h-95.8v16300" style="fill:#982274;fill-opacity:1;fill-rule:evenodd;stroke:none" transform="scale(1.73201)"/><path d="M11361.7 16300h95.8V0h-95.8v16300" style="fill:#982275;fill-opacity:1;fill-rule:evenodd;stroke:none" transform="scale(1.73201)"/><path d="M11425.6 16300h95.7V0h-95.7v16300" style="fill:#982275;fill-opacity:1;fill-rule:evenodd;stroke:none" transform="scale(1.73201)"/><path d="M11489.4 16300h95.7V0h-95.7v16300" style="fill:#982276;fill-opacity:1;fill-rule:evenodd;stroke:none" transform="scale(1.73201)"/><path d="M11553.2 16300h95.8V0h-95.8v16300" style="fill:#982376;fill-opacity:1;fill-rule:evenodd;stroke:none" transform="scale(1.73201)"/><path d="M11617.1 16300h95.7V0h-95.7v16300" style="fill:#982376;fill-opacity:1;fill-rule:evenodd;stroke:none" transform="scale(1.73201)"/><path d="M11681 16300h95.6V0h-95.6v16300" style="fill:#982377;fill-opacity:1;fill-rule:evenodd;stroke:none" transform="scale(1.73201)"/><path d="M11744.8 16300h95.6V0h-95.6v16300" style="fill:#972377;fill-opacity:1;fill-rule:evenodd;stroke:none" transform="scale(1.73201)"/><path d="M11808.6 16300h95.6V0h-95.6v16300" style="fill:#972377;fill-opacity:1;fill-rule:evenodd;stroke:none" transform="scale(1.73201)"/><path d="M11872.4 16300h95.7V0h-95.7v16300" style="fill:#972378;fill-opacity:1;fill-rule:evenodd;stroke:none" transform="scale(1.73201)"/><path d="M11936.2 16300h95.7V0h-95.7v16300" style="fill:#972378;fill-opacity:1;fill-rule:evenodd;stroke:none" transform="scale(1.73201)"/><path d="M12000.1 16300h95.7V0h-95.7v16300" style="fill:#972379;fill-opacity:1;fill-rule:evenodd;stroke:none" transform="scale(1.73201)"/><path d="M12063.9 16300h95.8V0h-95.8v16300" style="fill:#972379;fill-opacity:1;fill-rule:evenodd;stroke:none" transform="scale(1.73201)"/><path d="M12127.7 16300h95.8V0h-95.8v16300" style="fill:#972379;fill-opacity:1;fill-rule:evenodd;stroke:none" transform="scale(1.73201)"/><path d="M12191.5 16300h95.8V0h-95.8v16300" style="fill:#97237a;fill-opacity:1;fill-rule:evenodd;stroke:none" transform="scale(1.73201)"/><path d="M12255.3 16300h95.8V0h-95.8v16300" style="fill:#96237a;fill-opacity:1;fill-rule:evenodd;stroke:none" transform="scale(1.73201)"/><path d="M12319.2 16300h95.8V0h-95.8v16300" style="fill:#96237b;fill-opacity:1;fill-rule:evenodd;stroke:none" transform="scale(1.73201)"/><path d="M12383 16300h95.8V0h-95.8v16300" style="fill:#96237b;fill-opacity:1;fill-rule:evenodd;stroke:none" transform="scale(1.73201)"/><path d="M12446.8 16300h95.8V0h-95.8v16300" style="fill:#96247b;fill-opacity:1;fill-rule:evenodd;stroke:none" transform="scale(1.73201)"/><path d="M12510.8 16300h95.6V0h-95.6v16300" style="fill:#96247c;fill-opacity:1;fill-rule:evenodd;stroke:none" transform="scale(1.73201)"/><path d="M12574.4 16300h95.8V0h-95.8v16300" style="fill:#96247c;fill-opacity:1;fill-rule:evenodd;stroke:none" transform="scale(1.73201)"/><path d="M12638.3 16300h95.8V0h-95.8v16300" style="fill:#96247c;fill-opacity:1;fill-rule:evenodd;stroke:none" transform="scale(1.73201)"/><path d="M12702.2 16300h95.7V0h-95.7v16300" style="fill:#96247d;fill-opacity:1;fill-rule:evenodd;stroke:none" transform="scale(1.73201)"/><path d="M12766.1 16300h95.6V0h-95.6v16300" style="fill:#95247d;fill-opacity:1;fill-rule:evenodd;stroke:none" transform="scale(1.73201)"/><path d="M12829.9 16300h95.6V0h-95.6v16300" style="fill:#95247e;fill-opacity:1;fill-rule:evenodd;stroke:none" transform="scale(1.73201)"/><path d="M12893.7 16300h95.6V0h-95.6v16300" style="fill:#95247e;fill-opacity:1;fill-rule:evenodd;stroke:none" transform="scale(1.73201)"/><path d="M12957.5 16300h95.7V0h-95.7v16300" style="fill:#95247e;fill-opacity:1;fill-rule:evenodd;stroke:none" transform="scale(1.73201)"/><path d="M13021.3 16300h95.7V0h-95.7v16300" style="fill:#95247f;fill-opacity:1;fill-rule:evenodd;stroke:none" transform="scale(1.73201)"/><path d="M13085.2 16300h95.8V0h-95.8v16300" style="fill:#95247f;fill-opacity:1;fill-rule:evenodd;stroke:none" transform="scale(1.73201)"/><path d="M13149 16300h95.8V0h-95.8v16300" style="fill:#952480;fill-opacity:1;fill-rule:evenodd;stroke:none" transform="scale(1.73201)"/><path d="M13212.8 16300h95.8V0h-95.8v16300" style="fill:#952480;fill-opacity:1;fill-rule:evenodd;stroke:none" transform="scale(1.73201)"/><path d="M13276.6 16300h95.8V0h-95.8v16300" style="fill:#942480;fill-opacity:1;fill-rule:evenodd;stroke:none" transform="scale(1.73201)"/><path d="M13340.4 16300h95.8V0h-95.8v16300" style="fill:#942581;fill-opacity:1;fill-rule:evenodd;stroke:none" transform="scale(1.73201)"/><path d="M13404.3 16300h95.8V0h-95.8v16300" style="fill:#942581;fill-opacity:1;fill-rule:evenodd;stroke:none" transform="scale(1.73201)"/><path d="M13468.1 16300h95.8V0h-95.8v16300" style="fill:#942581;fill-opacity:1;fill-rule:evenodd;stroke:none" transform="scale(1.73201)"/><path d="M13532.1 16300h95.6V0h-95.6v16300" style="fill:#942582;fill-opacity:1;fill-rule:evenodd;stroke:none" transform="scale(1.73201)"/><path d="M13595.7 16300h95.8V0h-95.8v16300" style="fill:#942582;fill-opacity:1;fill-rule:evenodd;stroke:none" transform="scale(1.73201)"/><path d="M13659.5 16300h95.8V0h-95.8v16300" style="fill:#942583;fill-opacity:1;fill-rule:evenodd;stroke:none" transform="scale(1.73201)"/><path d="M13723.5 16300h95.7V0h-95.7v16300" style="fill:#942583;fill-opacity:1;fill-rule:evenodd;stroke:none" transform="scale(1.73201)"/><path d="M13787.3 16300h95.7V0h-95.7v16300" style="fill:#932583;fill-opacity:1;fill-rule:evenodd;stroke:none" transform="scale(1.73201)"/><path d="M13851.2 16300h95.6V0h-95.6v16300" style="fill:#932584;fill-opacity:1;fill-rule:evenodd;stroke:none" transform="scale(1.73201)"/><path d="M13915 16300h95.6V0h-95.6v16300" style="fill:#932584;fill-opacity:1;fill-rule:evenodd;stroke:none" transform="scale(1.73201)"/><path d="M13978.8 16300h95.8V0h-95.8v16300" style="fill:#932584;fill-opacity:1;fill-rule:evenodd;stroke:none" transform="scale(1.73201)"/><path d="M14042.6 16300h95.7V0h-95.7v16300" style="fill:#932585;fill-opacity:1;fill-rule:evenodd;stroke:none" transform="scale(1.73201)"/><path d="M14106.4 16300h95.8V0h-95.8v16300" style="fill:#932585;fill-opacity:1;fill-rule:evenodd;stroke:none" transform="scale(1.73201)"/><path d="M14170.3 16300h95.8V0h-95.8v16300" style="fill:#932586;fill-opacity:1;fill-rule:evenodd;stroke:none" transform="scale(1.73201)"/><path d="M14234.1 16300h95.8V0h-95.8v16300" style="fill:#932686;fill-opacity:1;fill-rule:evenodd;stroke:none" transform="scale(1.73201)"/><path d="M14297.9 16300h95.8V0h-95.8v16300" style="fill:#922686;fill-opacity:1;fill-rule:evenodd;stroke:none" transform="scale(1.73201)"/><path d="M14361.7 16300h95.8V0h-95.8v16300" style="fill:#922687;fill-opacity:1;fill-rule:evenodd;stroke:none" transform="scale(1.73201)"/><path d="M14425.5 16300h95.8V0h-95.8v16300" style="fill:#922687;fill-opacity:1;fill-rule:evenodd;stroke:none" transform="scale(1.73201)"/><path d="M14489.4 16300h95.8V0h-95.8v16300" style="fill:#922688;fill-opacity:1;fill-rule:evenodd;stroke:none" transform="scale(1.73201)"/><path d="M14553.2 16300h95.8V0h-95.8v16300" style="fill:#922688;fill-opacity:1;fill-rule:evenodd;stroke:none" transform="scale(1.73201)"/><path d="M14617.2 16300h95.6V0h-95.6v16300" style="fill:#922688;fill-opacity:1;fill-rule:evenodd;stroke:none" transform="scale(1.73201)"/><path d="M14680.8 16300h95.8V0h-95.8v16300" style="fill:#922689;fill-opacity:1;fill-rule:evenodd;stroke:none" transform="scale(1.73201)"/><path d="M14744.8 16300h95.6V0h-95.6v16300" style="fill:#922689;fill-opacity:1;fill-rule:evenodd;stroke:none" transform="scale(1.73201)"/><path d="M14808.6 16300h95.7V0h-95.7v16300" style="fill:#912689;fill-opacity:1;fill-rule:evenodd;stroke:none" transform="scale(1.73201)"/><path d="M14872.4 16300h95.7V0h-95.7v16300" style="fill:#91268a;fill-opacity:1;fill-rule:evenodd;stroke:none" transform="scale(1.73201)"/><path d="M14936.3 16300h95.6V0h-95.6v16300" style="fill:#91268a;fill-opacity:1;fill-rule:evenodd;stroke:none" transform="scale(1.73201)"/><path d="M15000.1 16300h95.6V0h-95.6v16300" style="fill:#91268b;fill-opacity:1;fill-rule:evenodd;stroke:none" transform="scale(1.73201)"/><path d="M15063.9 16300h95.6V0h-95.6v16300" style="fill:#91268b;fill-opacity:1;fill-rule:evenodd;stroke:none" transform="scale(1.73201)"/><path d="M15127.7 16300h95.8V0h-95.8v16300" style="fill:#91278b;fill-opacity:1;fill-rule:evenodd;stroke:none" transform="scale(1.73201)"/><path d="M15191.5 16300h95.8V0h-95.8v16300" style="fill:#91278c;fill-opacity:1;fill-rule:evenodd;stroke:none" transform="scale(1.73201)"/><path d="M15255.4 16300h95.8V0h-95.8v16300" style="fill:#91278c;fill-opacity:1;fill-rule:evenodd;stroke:none" transform="scale(1.73201)"/><path d="M15319.2 16300h95.8V0h-95.8v16300" style="fill:#90278d;fill-opacity:1;fill-rule:evenodd;stroke:none" transform="scale(1.73201)"/><path d="M15383 16300h95.8V0h-95.8v16300" style="fill:#90278d;fill-opacity:1;fill-rule:evenodd;stroke:none" transform="scale(1.73201)"/><path d="M15446.8 16300h95.8V0h-95.8v16300" style="fill:#90278d;fill-opacity:1;fill-rule:evenodd;stroke:none" transform="scale(1.73201)"/><path d="M15510.6 16300h95.8V0h-95.8v16300" style="fill:#90278e;fill-opacity:1;fill-rule:evenodd;stroke:none" transform="scale(1.73201)"/><path d="M15574.5 16300h95.8V0h-95.8v16300" style="fill:#90278e;fill-opacity:1;fill-rule:evenodd;stroke:none" transform="scale(1.73201)"/><path d="M15638.4 16300h95.7V0h-95.7v16300" style="fill:#90278e;fill-opacity:1;fill-rule:evenodd;stroke:none" transform="scale(1.73201)"/><path d="M15702.1 16300h95.8V0h-95.8v16300" style="fill:#90278e;fill-opacity:1;fill-rule:evenodd;stroke:none" transform="scale(1.73201)"/><path d="M15766.1 16300h95.6V0h-95.6v16300" style="fill:#90278e;fill-opacity:1;fill-rule:evenodd;stroke:none" transform="scale(1.73201)"/><path d="M15829.9 16300h95.6V0h-95.6v16300" style="fill:#90278e;fill-opacity:1;fill-rule:evenodd;stroke:none" transform="scale(1.73201)"/><path d="M15893.7 16300h95.7V0h-95.7v16300" style="fill:#90278e;fill-opacity:1;fill-rule:evenodd;stroke:none" transform="scale(1.73201)"/><path d="M15957.5 16300h95.7V0h-95.7v16300" style="fill:#90278e;fill-opacity:1;fill-rule:evenodd;stroke:none" transform="scale(1.73201)"/><path d="M16021.4 16300h95.6V0h-95.6v16300" style="fill:#90278e;fill-opacity:1;fill-rule:evenodd;stroke:none" transform="scale(1.73201)"/><path d="M16085.2 16300h95.7V0h-95.7v16300" style="fill:#90278e;fill-opacity:1;fill-rule:evenodd;stroke:none" transform="scale(1.73201)"/><path d="M16149 16300h95.6V0h-95.6v16300" style="fill:#90278e;fill-opacity:1;fill-rule:evenodd;stroke:none" transform="scale(1.73201)"/><path d="M16172.6 16259.6h127.5V0h-127.5v16259.6" style="fill:#90278e;fill-opacity:1;fill-rule:evenodd;stroke:none" transform="scale(1.73632)"/></g></g></svg>