<svg enable-background="new 15 10 40 40" version="1.1" viewBox="15 10 40 40" xml:space="none" xmlns="http://www.w3.org/2000/svg">
 <style type="text/css">.st0{fill:#4f5d73}.st1{opacity:.2}.st2{fill:#231f20}.st3{fill:#c75c5c}</style>
 <g transform="translate(2.7119 -2.7119)">
  <g transform="translate(1.695)" fill="#24292f">
   <circle class="st0" cx="32" cy="32" r="32" fill="#24292f"/>
  </g>
  <g class="st1">
   <path class="st2" d="m32.1 39.7c-1.6 1.5-6.1 12.5-6.1 12.5-.7 1.2.3 2.1 2.6.9l8.1-4.4c4.4-2.4 5.2-3.1 5.2-8l-.8-5.9c-.3-2-1.8-2.4-3.3-.8z"/>
   <path class="st2" d="M27.1 34.7c-1.6 1.6-12.5 6.1-12.5 6.1-1.2.7-2.1-.3-.9-2.6L18 30c2.4-4.4 3.1-5.2 8-5.2l5.9.8c2 .3 2.4 1.8.8 3.3z"/>
  </g>
  <path class="st3" d="m32.1 37.7c-1.6 1.5-6.1 12.5-6.1 12.5-.7 1.2.3 2.1 2.6.9l8.1-4.4c4.4-2.4 5.2-3.1 5.2-8l-.8-5.9c-.3-2-1.8-2.4-3.3-.8z"/>
  <path class="st3" d="M27.1 32.7c-1.6 1.6-12.5 6.1-12.5 6.1-1.2.7-2.1-.3-.9-2.6L18 28c2.4-4.4 3.1-5.2 8-5.2l5.9.8c2 .3 2.4 1.8.8 3.3z"/>
  <g class="st1">
   <path class="st2" d="m21.2 39.5c5.1-5.1 9.3-3.5 9.3-3.5s1.5 4.3-3.5 9.3-13.3 8.8-13.9 8.1c-.6-.5 3.1-8.8 8.1-13.9z"/>
  </g>
  <path d="m21.2 37.5c5.1-5.1 9.3-3.5 9.3-3.5s1.5 4.3-3.5 9.3-13.3 8.8-13.9 8.1c-.6-.5 3.1-8.8 8.1-13.9z" fill="#e0995e"/>
  <path d="m25.5 33.3c5.1-5.1 9.3-3.5 9.3-3.5s1.5 4.3-3.5 9.3-13.3 8.8-13.9 8.1c-.7-.6 3-8.8 8.1-13.9z" fill="#f5cf87"/>
  <g class="st1">
   <path class="st2" d="m43.6 37.1c-7.8 7.8-19.8 5.7-19.8 5.7s-2.1-12 5.7-19.8 19.6-8.6 21.2-7.1c1.5 1.5.7 13.4-7.1 21.2z"/>
  </g>
  <path d="m43.6 35.1c-7.8 7.8-19.8 5.7-19.8 5.7s-2.1-12 5.7-19.8 19.6-8.6 21.2-7.1c1.5 1.5.7 13.4-7.1 21.2z" fill="#e0e0d1"/>
  <g class="st1">
   <path class="st2" d="m21 47c-.8.8-1.3 1.5-2.1.7s-.1-1.3.7-2.1l9.9-12.7c.8-.8 4.2-1.5 4.9-.7.8.8.1 4.2-.7 4.9z"/>
  </g>
  <path class="st3" d="m21 45c-.8.8-1.3 1.5-2.1.7s-.1-1.3.7-2.1l9.9-12.7c.8-.8 4.2-1.5 4.9-.7.8.8.1 4.2-.7 4.9z"/>
  <g class="st1">
   <circle class="st2" cx="39.6" cy="27.1" r="4"/>
   <circle class="st2" cx="45.3" cy="21.5" r="2"/>
  </g>
  <circle class="st0" cx="39.6" cy="25.1" r="4"/>
  <circle class="st0" cx="45.3" cy="19.5" r="2"/>
 </g>
</svg>
