<svg width="60px" height="60px"   viewBox="10 50 500 400" version="1.1" xmlns="http://www.w3.org/2000/svg" preserveAspectRatio="xMidYMid">
 <path d="m378.04 424.23h-244.08c-26.104 0-47.462-21.358-47.462-47.462v-244.08c0-26.104 21.358-47.462 47.462-47.462h244.08c26.104 0 47.462 21.358 47.462 47.462v244.08c0 26.104-21.358 47.462-47.462 47.462zm-39.847-253.06h-160.29v160.29h160.29zm-155.84-171.17h-29.851v71.768h29.851zm59.879 0h-29.851v71.768h29.851zm59.88 0h-29.851v71.768h29.851zm59.879 0h-29.851v71.768h29.851zm-288.95 329.68h-73.039v29.851h73.039zm0-59.879h-73.039v29.851h73.039zm0-59.88h-73.039v29.851h73.039zm0-59.879h-73.039v29.851h73.039zm438.96 179.64h-73.039v29.851h73.039zm0-59.879h-73.039v29.851h73.039zm0-59.88h-73.039v29.851h73.039zm0-59.879h-73.039v29.851h73.039zm-329.65 290.19h-29.851v71.768h29.851zm59.88 0h-29.851v71.768h29.851zm59.879 0h-29.851v71.768h29.851zm59.88 0h-29.851v71.768h29.851zm-210.44-311.33c0-12.271-13.375-19.982-24.018-13.847-10.643 6.1356-10.643 21.558 0 27.693s24.018-1.5755 24.018-13.847z"/>
 <text x="103" y="297.22031" fill="#4e9c06" font-family="'Arial Rounded MT Bold'" font-size="106.67px" font-weight="bold" style="mix-blend-mode:difference" xml:space="none"><tspan x="107" y="297.22031" fill="#4e9c06" font-family="sans-serif" font-size="106.67px" font-weight="bold">VHDL</tspan></text>
</svg>
